<?xml version="1.0" encoding="UTF-8"?>
<svg xmlns="http://www.w3.org/2000/svg" xmlns:xlink="http://www.w3.org/1999/xlink" width="30pt" height="30.000001pt" viewBox="0 0 30 30.000001" version="1.2">
<defs>
<clipPath id="clip1">
  <path d="M 3.859375 6 L 7 6 L 7 14 L 3.859375 14 Z M 3.859375 6 "/>
</clipPath>
<clipPath id="clip2">
  <path d="M 23 6 L 26.359375 6 L 26.359375 14 L 23 14 Z M 23 6 "/>
</clipPath>
<clipPath id="clip3">
  <path d="M 4 18 L 26.359375 18 L 26.359375 29.03125 L 4 29.03125 Z M 4 18 "/>
</clipPath>
<clipPath id="clip4">
  <path d="M 8 24 L 10 24 L 10 29.03125 L 8 29.03125 Z M 8 24 "/>
</clipPath>
<clipPath id="clip5">
  <path d="M 21 24 L 23 24 L 23 29.03125 L 21 29.03125 Z M 21 24 "/>
</clipPath>
</defs>
<g id="surface1">
<g clip-path="url(#clip1)" clip-rule="nonzero">
<path style=" stroke:none;fill-rule:nonzero;fill:rgb(0%,0%,0%);fill-opacity:1;" d="M 5.347656 13.546875 C 4.53125 13.546875 3.867188 12.898438 3.867188 12.097656 L 3.867188 8.226562 C 3.867188 7.425781 4.53125 6.773438 5.347656 6.773438 C 6.164062 6.773438 6.828125 7.425781 6.828125 8.226562 L 6.828125 12.097656 C 6.828125 12.898438 6.164062 13.546875 5.347656 13.546875 Z M 5.347656 7.742188 C 5.074219 7.742188 4.855469 7.957031 4.855469 8.226562 L 4.855469 12.097656 C 4.855469 12.363281 5.074219 12.582031 5.347656 12.582031 C 5.621094 12.582031 5.839844 12.363281 5.839844 12.097656 L 5.839844 8.226562 C 5.839844 7.957031 5.621094 7.742188 5.347656 7.742188 Z M 5.347656 7.742188 "/>
</g>
<g clip-path="url(#clip2)" clip-rule="nonzero">
<path style=" stroke:none;fill-rule:nonzero;fill:rgb(0%,0%,0%);fill-opacity:1;" d="M 25.097656 13.546875 C 24.28125 13.546875 23.617188 12.898438 23.617188 12.097656 L 23.617188 8.226562 C 23.617188 7.425781 24.28125 6.773438 25.097656 6.773438 C 25.914062 6.773438 26.582031 7.425781 26.582031 8.226562 L 26.582031 12.097656 C 26.582031 12.898438 25.914062 13.546875 25.097656 13.546875 Z M 25.097656 7.742188 C 24.828125 7.742188 24.605469 7.957031 24.605469 8.226562 L 24.605469 12.097656 C 24.605469 12.363281 24.828125 12.582031 25.097656 12.582031 C 25.371094 12.582031 25.59375 12.363281 25.59375 12.097656 L 25.59375 8.226562 C 25.59375 7.957031 25.371094 7.742188 25.097656 7.742188 Z M 25.097656 7.742188 "/>
</g>
<path style=" stroke:none;fill-rule:nonzero;fill:rgb(0%,0%,0%);fill-opacity:1;" d="M 24.65625 7.851562 C 24.441406 7.851562 24.246094 7.714844 24.183594 7.507812 C 22.996094 3.65625 19.3125 0.96875 15.222656 0.96875 C 11.136719 0.96875 7.453125 3.65625 6.265625 7.507812 C 6.1875 7.761719 5.910156 7.90625 5.648438 7.828125 C 5.386719 7.753906 5.242188 7.484375 5.320312 7.226562 C 6.632812 2.972656 10.703125 0 15.222656 0 C 19.742188 0 23.816406 2.972656 25.128906 7.226562 C 25.207031 7.484375 25.058594 7.753906 24.796875 7.828125 C 24.75 7.84375 24.703125 7.851562 24.65625 7.851562 Z M 24.65625 7.851562 "/>
<path style=" stroke:none;fill-rule:nonzero;fill:rgb(0%,0%,0%);fill-opacity:1;" d="M 22.136719 16.453125 C 21.863281 16.453125 21.640625 16.234375 21.640625 15.96875 C 21.640625 15.699219 21.863281 15.484375 22.136719 15.484375 C 23.496094 15.484375 24.605469 14.398438 24.605469 13.066406 C 24.605469 12.796875 24.828125 12.582031 25.097656 12.582031 C 25.371094 12.582031 25.59375 12.796875 25.59375 13.066406 C 25.59375 14.933594 24.042969 16.453125 22.136719 16.453125 Z M 22.136719 16.453125 "/>
<path style=" stroke:none;fill-rule:nonzero;fill:rgb(0%,0%,0%);fill-opacity:1;" d="M 21.148438 17.902344 L 18.1875 17.902344 C 17.371094 17.902344 16.703125 17.25 16.703125 16.453125 L 16.703125 15.484375 C 16.703125 14.683594 17.371094 14.03125 18.1875 14.03125 L 21.148438 14.03125 C 21.964844 14.03125 22.628906 14.683594 22.628906 15.484375 L 22.628906 16.453125 C 22.628906 17.25 21.964844 17.902344 21.148438 17.902344 Z M 18.1875 15 C 17.914062 15 17.691406 15.214844 17.691406 15.484375 L 17.691406 16.453125 C 17.691406 16.71875 17.914062 16.933594 18.1875 16.933594 L 21.148438 16.933594 C 21.421875 16.933594 21.640625 16.71875 21.640625 16.453125 L 21.640625 15.484375 C 21.640625 15.214844 21.421875 15 21.148438 15 Z M 18.1875 15 "/>
<path style=" stroke:none;fill-rule:nonzero;fill:rgb(0%,0%,0%);fill-opacity:1;" d="M 15.222656 17.902344 C 10.867188 17.902344 7.324219 14.429688 7.324219 10.160156 C 7.324219 5.894531 10.867188 2.417969 15.222656 2.417969 C 19.578125 2.417969 23.125 5.894531 23.125 10.160156 C 23.125 11.84375 22.574219 13.453125 21.535156 14.808594 C 21.441406 14.929688 21.292969 15 21.136719 15 L 18.1875 15 C 17.914062 15 17.691406 15.214844 17.691406 15.484375 L 17.691406 16.453125 C 17.691406 16.597656 17.761719 16.703125 17.816406 16.765625 C 17.929688 16.890625 17.96875 17.058594 17.921875 17.214844 C 17.878906 17.375 17.753906 17.5 17.59375 17.546875 C 16.828125 17.785156 16.027344 17.902344 15.222656 17.902344 Z M 15.222656 3.386719 C 11.410156 3.386719 8.3125 6.425781 8.3125 10.160156 C 8.3125 13.898438 11.410156 16.933594 15.222656 16.933594 C 15.734375 16.933594 16.246094 16.878906 16.742188 16.769531 C 16.71875 16.667969 16.703125 16.558594 16.703125 16.453125 L 16.703125 15.484375 C 16.703125 14.683594 17.371094 14.03125 18.1875 14.03125 L 20.886719 14.03125 C 21.707031 12.886719 22.136719 11.554688 22.136719 10.160156 C 22.136719 6.425781 19.035156 3.386719 15.222656 3.386719 Z M 15.222656 3.386719 "/>
<g clip-path="url(#clip3)" clip-rule="nonzero">
<path style=" stroke:none;fill-rule:nonzero;fill:rgb(0%,0%,0%);fill-opacity:1;" d="M 25.59375 29.03125 L 4.855469 29.03125 C 4.582031 29.03125 4.359375 28.816406 4.359375 28.546875 L 4.359375 24.488281 C 4.359375 21.390625 6.933594 18.871094 10.09375 18.871094 L 20.351562 18.871094 C 23.515625 18.871094 26.085938 21.390625 26.085938 24.488281 L 26.085938 28.546875 C 26.085938 28.816406 25.867188 29.03125 25.59375 29.03125 Z M 5.347656 28.066406 L 25.097656 28.066406 L 25.097656 24.488281 C 25.097656 21.925781 22.96875 19.839844 20.351562 19.839844 L 10.09375 19.839844 C 7.476562 19.839844 5.347656 21.925781 5.347656 24.488281 Z M 5.347656 28.066406 "/>
</g>
<g clip-path="url(#clip4)" clip-rule="nonzero">
<path style=" stroke:none;fill-rule:nonzero;fill:rgb(0%,0%,0%);fill-opacity:1;" d="M 8.804688 29.03125 C 8.53125 29.03125 8.3125 28.816406 8.3125 28.546875 L 8.3125 25.160156 C 8.3125 24.894531 8.53125 24.675781 8.804688 24.675781 C 9.078125 24.675781 9.296875 24.894531 9.296875 25.160156 L 9.296875 28.546875 C 9.296875 28.816406 9.078125 29.03125 8.804688 29.03125 Z M 8.804688 29.03125 "/>
</g>
<g clip-path="url(#clip5)" clip-rule="nonzero">
<path style=" stroke:none;fill-rule:nonzero;fill:rgb(0%,0%,0%);fill-opacity:1;" d="M 22.136719 29.03125 C 21.863281 29.03125 21.640625 28.816406 21.640625 28.546875 L 21.640625 25.160156 C 21.640625 24.894531 21.863281 24.675781 22.136719 24.675781 C 22.410156 24.675781 22.628906 24.894531 22.628906 25.160156 L 22.628906 28.546875 C 22.628906 28.816406 22.410156 29.03125 22.136719 29.03125 Z M 22.136719 29.03125 "/>
</g>
</g>
</svg>
