<?xml version="1.0" encoding="UTF-8"?>
<svg xmlns="http://www.w3.org/2000/svg" xmlns:xlink="http://www.w3.org/1999/xlink" width="30pt" height="30.000001pt" viewBox="0 0 30 30.000001" version="1.2">
<defs>
<clipPath id="clip1">
  <path d="M 3.929688 0 L 26.429688 0 L 26.429688 29.03125 L 3.929688 29.03125 Z M 3.929688 0 "/>
</clipPath>
</defs>
<g id="surface1">
<g clip-path="url(#clip1)" clip-rule="nonzero">
<path style=" stroke:none;fill-rule:nonzero;fill:rgb(100%,34.118652%,13.328552%);fill-opacity:1;" d="M 26.792969 29.03125 L 3.941406 29.03125 L 3.941406 0 L 19.652344 0 L 26.792969 6.914062 Z M 26.792969 29.03125 "/>
</g>
<path style=" stroke:none;fill-rule:nonzero;fill:rgb(98.429871%,91.369629%,90.589905%);fill-opacity:1;" d="M 25.71875 7.605469 L 18.9375 7.605469 L 18.9375 1.035156 Z M 25.71875 7.605469 "/>
<path style=" stroke:none;fill-rule:nonzero;fill:rgb(100%,92.158508%,93.328857%);fill-opacity:1;" d="M 9.515625 18.316406 L 9.515625 20.738281 L 8.082031 20.738281 L 8.082031 13.855469 L 10.503906 13.855469 C 11.207031 13.855469 11.765625 14.070312 12.183594 14.492188 C 12.601562 14.914062 12.8125 15.460938 12.8125 16.136719 C 12.8125 16.808594 12.605469 17.339844 12.191406 17.734375 C 11.78125 18.125 11.207031 18.316406 10.472656 18.316406 Z M 9.515625 17.160156 L 10.503906 17.160156 C 10.777344 17.160156 10.988281 17.074219 11.136719 16.898438 C 11.289062 16.726562 11.363281 16.476562 11.363281 16.144531 C 11.363281 15.800781 11.285156 15.527344 11.132812 15.324219 C 10.980469 15.121094 10.777344 15.019531 10.519531 15.015625 L 9.515625 15.015625 Z M 9.515625 17.160156 "/>
<path style=" stroke:none;fill-rule:nonzero;fill:rgb(100%,92.158508%,93.328857%);fill-opacity:1;" d="M 13.769531 20.738281 L 13.769531 13.855469 L 15.648438 13.855469 C 16.476562 13.855469 17.140625 14.113281 17.632812 14.621094 C 18.125 15.132812 18.378906 15.832031 18.386719 16.71875 L 18.386719 17.835938 C 18.386719 18.738281 18.140625 19.449219 17.648438 19.964844 C 17.152344 20.480469 16.476562 20.738281 15.609375 20.738281 Z M 15.203125 15.015625 L 15.203125 19.585938 L 15.632812 19.585938 C 16.113281 19.585938 16.449219 19.460938 16.644531 19.21875 C 16.839844 18.972656 16.941406 18.554688 16.953125 17.953125 L 16.953125 16.757812 C 16.953125 16.117188 16.859375 15.667969 16.671875 15.414062 C 16.488281 15.160156 16.171875 15.027344 15.726562 15.015625 Z M 15.203125 15.015625 "/>
<path style=" stroke:none;fill-rule:nonzero;fill:rgb(100%,92.158508%,93.328857%);fill-opacity:1;" d="M 23.082031 17.929688 L 20.851562 17.929688 L 20.851562 20.738281 L 19.417969 20.738281 L 19.417969 13.855469 L 23.351562 13.855469 L 23.351562 15.015625 L 20.851562 15.015625 L 20.851562 16.777344 L 23.082031 16.777344 Z M 23.082031 17.929688 "/>
</g>
</svg>
