<?xml version="1.0" encoding="UTF-8"?>
<svg xmlns="http://www.w3.org/2000/svg" xmlns:xlink="http://www.w3.org/1999/xlink" width="30pt" height="30.000001pt" viewBox="0 0 30 30.000001" version="1.2">
<defs>
<clipPath id="clip1">
  <path d="M 13 12 L 28.191406 12 L 28.191406 29 L 13 29 Z M 13 12 "/>
</clipPath>
<clipPath id="clip2">
  <path d="M 13 12 L 28.191406 12 L 28.191406 29.03125 L 13 29.03125 Z M 13 12 "/>
</clipPath>
<clipPath id="clip3">
  <path d="M 2.0625 12 L 17 12 L 17 29 L 2.0625 29 Z M 2.0625 12 "/>
</clipPath>
<clipPath id="clip4">
  <path d="M 2.0625 12 L 17 12 L 17 29.03125 L 2.0625 29.03125 Z M 2.0625 12 "/>
</clipPath>
</defs>
<g id="surface1">
<g clip-path="url(#clip1)" clip-rule="nonzero">
<path style=" stroke:none;fill-rule:nonzero;fill:rgb(95.689392%,43.528748%,10.5896%);fill-opacity:1;" d="M 28.191406 24.816406 L 23.015625 24.359375 L 20.355469 28.734375 L 13.980469 16.480469 L 21.8125 12.566406 L 28.191406 24.816406 "/>
</g>
<g clip-path="url(#clip2)" clip-rule="nonzero">
<path style=" stroke:none;fill-rule:nonzero;fill:rgb(94.898987%,34.118652%,12.159729%);fill-opacity:1;" d="M 28.191406 24.816406 L 28.203125 24.671875 L 22.9375 24.207031 L 20.367188 28.433594 L 14.179688 16.542969 L 21.746094 12.761719 L 28.058594 24.882812 L 28.191406 24.816406 L 28.203125 24.671875 L 28.191406 24.816406 L 28.320312 24.753906 L 21.878906 12.371094 L 13.78125 16.417969 L 20.347656 29.035156 L 23.09375 24.511719 L 28.445312 24.984375 L 28.320312 24.753906 L 28.191406 24.816406 "/>
</g>
<g clip-path="url(#clip3)" clip-rule="nonzero">
<path style=" stroke:none;fill-rule:nonzero;fill:rgb(95.689392%,43.528748%,10.5896%);fill-opacity:1;" d="M 2.316406 24.816406 L 7.492188 24.359375 L 10.148438 28.734375 L 16.527344 16.480469 L 8.695312 12.566406 L 2.316406 24.816406 "/>
</g>
<g clip-path="url(#clip4)" clip-rule="nonzero">
<path style=" stroke:none;fill-rule:nonzero;fill:rgb(94.898987%,34.118652%,12.159729%);fill-opacity:1;" d="M 2.316406 24.816406 L 2.332031 24.960938 L 7.410156 24.511719 L 10.160156 29.035156 L 16.726562 16.417969 L 8.628906 12.371094 L 2.0625 24.984375 L 2.332031 24.960938 L 2.316406 24.816406 L 2.449219 24.882812 L 8.761719 12.761719 L 16.328125 16.542969 L 10.140625 28.433594 L 7.570312 24.207031 L 2.304688 24.671875 L 2.316406 24.816406 L 2.449219 24.882812 L 2.316406 24.816406 "/>
</g>
<path style=" stroke:none;fill-rule:nonzero;fill:rgb(96.078491%,75.689697%,8.628845%);fill-opacity:1;" d="M 24.871094 9.894531 C 24.871094 15.355469 20.351562 19.789062 14.777344 19.789062 C 9.199219 19.789062 4.679688 15.355469 4.679688 9.894531 C 4.679688 4.429688 9.199219 0 14.777344 0 C 20.351562 0 24.871094 4.429688 24.871094 9.894531 "/>
<path style=" stroke:none;fill-rule:nonzero;fill:rgb(96.078491%,71.759033%,9.408569%);fill-opacity:1;" d="M 23.078125 9.894531 C 23.078125 14.386719 19.363281 18.03125 14.777344 18.03125 C 10.1875 18.03125 6.472656 14.386719 6.472656 9.894531 C 6.472656 5.398438 10.1875 1.753906 14.777344 1.753906 C 19.363281 1.753906 23.078125 5.398438 23.078125 9.894531 "/>
<path style=" stroke:none;fill-rule:nonzero;fill:rgb(89.7995%,63.529968%,9.01947%);fill-opacity:1;" d="M 23.078125 9.894531 L 22.929688 9.894531 C 22.929688 12.101562 22.019531 14.097656 20.542969 15.546875 C 19.066406 16.992188 17.027344 17.886719 14.777344 17.886719 C 12.523438 17.886719 10.484375 16.992188 9.007812 15.546875 C 7.53125 14.097656 6.621094 12.101562 6.621094 9.894531 C 6.621094 7.683594 7.53125 5.6875 9.007812 4.238281 C 10.484375 2.792969 12.523438 1.898438 14.777344 1.898438 C 17.027344 1.898438 19.066406 2.792969 20.542969 4.238281 C 22.019531 5.6875 22.929688 7.683594 22.929688 9.894531 L 23.226562 9.894531 C 23.226562 5.316406 19.445312 1.609375 14.777344 1.609375 C 10.109375 1.609375 6.324219 5.316406 6.324219 9.894531 C 6.324219 14.46875 10.109375 18.175781 14.777344 18.175781 C 19.445312 18.175781 23.226562 14.46875 23.226562 9.894531 L 23.078125 9.894531 "/>
</g>
</svg>
