<svg id="Print_Lined_Paper_Airplane" data-name="Print / Lined / Paper Airplane" xmlns="http://www.w3.org/2000/svg" width="34" height="34" viewBox="0 0 34 34">
  <rect id="Frame" width="34" height="34" fill="none"/>
  <path id="paper_airplane" data-name="paper airplane" d="M27.775,3.86a.707.707,0,0,0-.8-.14L2.431,15.24a.708.708,0,0,0,.058,1.306l9.289,3.4,3.309,9.2a.707.707,0,0,0,.633.468h.034a.707.707,0,0,0,.64-.408L27.915,4.662A.7.7,0,0,0,27.775,3.86ZM15.841,27.052l-2.689-7.477L18.8,13.921a.708.708,0,1,0-1-1l-5.651,5.651L4.571,15.8,25.8,5.835Z" transform="translate(2.227 0.598)" fill="#fff"/>
</svg>
